<svg width="33" height="38" viewBox="0 0 33 38" fill="none" xmlns="http://www.w3.org/2000/svg">
<path d="M18.3842 31.7459L21.148 24.3517L21.753 22.7051C21.863 22.4517 22.1517 22.2301 22.3992 22.2301H26.6067C27.9267 22.2301 29.4942 21.1059 30.0992 19.7442C30.3055 19.2692 30.3055 18.6992 30.0992 18.2242C29.4942 16.8784 27.913 15.7542 26.593 15.7542H22.3855C22.138 15.7542 21.8492 15.5326 21.7392 15.2792L18.3705 6.25422C18.013 5.25672 16.9267 4.44922 15.9917 4.44922H14.1767C13.008 4.44922 12.4305 5.46255 12.898 6.71339L15.868 14.6459C16.1017 15.2634 15.813 15.7701 15.2217 15.7701H13.6955H11.2205C10.9042 15.7701 10.4505 15.5642 10.2305 15.3109L7.02672 11.6376C6.69672 11.2576 6.05047 11.0834 5.58297 11.2576L3.71297 11.9701C2.90172 12.2551 2.51672 13.3159 2.90172 14.1867L5.65172 17.9551C6.07797 18.5251 6.07797 19.4592 5.65172 20.0292L2.90172 23.7976C2.53047 24.6684 2.90172 25.7292 3.71297 26.0459L5.58297 26.7584C6.03672 26.9326 6.69672 26.7584 7.02672 26.3784L10.2305 22.7051C10.4505 22.4359 10.9042 22.2301 11.2205 22.2301H15.2217C15.813 22.2301 16.088 22.7209 15.868 23.3542L12.898 31.2867C12.4305 32.5376 13.008 33.5509 14.1767 33.5509H15.9917C16.9267 33.5509 18.013 32.7434 18.3842 31.7459Z" fill="#024C75" style="fill:#024C75;fill:color(display-p3 0.0078 0.2980 0.4588);fill-opacity:1;"/>
</svg>
